<mxfile host="app.diagrams.net" modified="2020-12-01T07:07:29.464Z" agent="5.0 (Macintosh; Intel Mac OS X 10_15_7) AppleWebKit/537.36 (KHTML, like Gecko) Chrome/87.0.4280.67 Safari/537.36" etag="Ggmb0U76L3c29R2CkXdP" version="13.9.9" type="github" pages="2">
  <diagram id="C5RBs43oDa-KdzZeNtuy" name="Page-1">
    <mxGraphModel dx="1298" dy="1927" grid="1" gridSize="10" guides="1" tooltips="1" connect="1" arrows="1" fold="1" page="1" pageScale="1" pageWidth="827" pageHeight="1169" math="0" shadow="0">
      <root>
        <mxCell id="WIyWlLk6GJQsqaUBKTNV-0" />
        <mxCell id="WIyWlLk6GJQsqaUBKTNV-1" parent="WIyWlLk6GJQsqaUBKTNV-0" />
        <mxCell id="WIyWlLk6GJQsqaUBKTNV-2" value="" style="rounded=0;html=1;jettySize=auto;orthogonalLoop=1;fontSize=11;endArrow=block;endFill=0;endSize=8;strokeWidth=1;shadow=0;labelBackgroundColor=none;edgeStyle=orthogonalEdgeStyle;" parent="WIyWlLk6GJQsqaUBKTNV-1" source="WIyWlLk6GJQsqaUBKTNV-3" target="WIyWlLk6GJQsqaUBKTNV-6" edge="1">
          <mxGeometry relative="1" as="geometry" />
        </mxCell>
        <mxCell id="WIyWlLk6GJQsqaUBKTNV-3" value="查询网格站服务区域" style="rounded=1;whiteSpace=wrap;html=1;fontSize=12;glass=0;strokeWidth=1;shadow=0;" parent="WIyWlLk6GJQsqaUBKTNV-1" vertex="1">
          <mxGeometry x="160" y="80" width="120" height="40" as="geometry" />
        </mxCell>
        <mxCell id="WIyWlLk6GJQsqaUBKTNV-4" value="Yes" style="rounded=0;html=1;jettySize=auto;orthogonalLoop=1;fontSize=11;endArrow=block;endFill=0;endSize=8;strokeWidth=1;shadow=0;labelBackgroundColor=none;edgeStyle=orthogonalEdgeStyle;" parent="WIyWlLk6GJQsqaUBKTNV-1" source="WIyWlLk6GJQsqaUBKTNV-6" target="WIyWlLk6GJQsqaUBKTNV-10" edge="1">
          <mxGeometry y="20" relative="1" as="geometry">
            <mxPoint as="offset" />
          </mxGeometry>
        </mxCell>
        <mxCell id="WIyWlLk6GJQsqaUBKTNV-5" value="No" style="edgeStyle=orthogonalEdgeStyle;rounded=0;html=1;jettySize=auto;orthogonalLoop=1;fontSize=11;endArrow=block;endFill=0;endSize=8;strokeWidth=1;shadow=0;labelBackgroundColor=none;" parent="WIyWlLk6GJQsqaUBKTNV-1" source="WIyWlLk6GJQsqaUBKTNV-6" target="WIyWlLk6GJQsqaUBKTNV-7" edge="1">
          <mxGeometry y="10" relative="1" as="geometry">
            <mxPoint as="offset" />
          </mxGeometry>
        </mxCell>
        <mxCell id="WIyWlLk6GJQsqaUBKTNV-6" value="是否已绑定" style="rhombus;whiteSpace=wrap;html=1;shadow=0;fontFamily=Helvetica;fontSize=12;align=center;strokeWidth=1;spacing=6;spacingTop=-4;" parent="WIyWlLk6GJQsqaUBKTNV-1" vertex="1">
          <mxGeometry x="170" y="170" width="100" height="80" as="geometry" />
        </mxCell>
        <mxCell id="WIyWlLk6GJQsqaUBKTNV-7" value="返回区域信息，无仓信息" style="rounded=1;whiteSpace=wrap;html=1;fontSize=12;glass=0;strokeWidth=1;shadow=0;" parent="WIyWlLk6GJQsqaUBKTNV-1" vertex="1">
          <mxGeometry x="320" y="190" width="120" height="40" as="geometry" />
        </mxCell>
        <mxCell id="WIyWlLk6GJQsqaUBKTNV-9" value="No" style="edgeStyle=orthogonalEdgeStyle;rounded=0;html=1;jettySize=auto;orthogonalLoop=1;fontSize=11;endArrow=block;endFill=0;endSize=8;strokeWidth=1;shadow=0;labelBackgroundColor=none;" parent="WIyWlLk6GJQsqaUBKTNV-1" source="WIyWlLk6GJQsqaUBKTNV-10" target="WIyWlLk6GJQsqaUBKTNV-12" edge="1">
          <mxGeometry y="10" relative="1" as="geometry">
            <mxPoint as="offset" />
          </mxGeometry>
        </mxCell>
        <mxCell id="C2mgrSA55JZJrAJBrM-s-2" value="" style="edgeStyle=orthogonalEdgeStyle;rounded=0;orthogonalLoop=1;jettySize=auto;html=1;" edge="1" parent="WIyWlLk6GJQsqaUBKTNV-1" source="WIyWlLk6GJQsqaUBKTNV-10" target="C2mgrSA55JZJrAJBrM-s-1">
          <mxGeometry relative="1" as="geometry" />
        </mxCell>
        <mxCell id="WIyWlLk6GJQsqaUBKTNV-10" value="是否已启用" style="rhombus;whiteSpace=wrap;html=1;shadow=0;fontFamily=Helvetica;fontSize=12;align=center;strokeWidth=1;spacing=6;spacingTop=-4;" parent="WIyWlLk6GJQsqaUBKTNV-1" vertex="1">
          <mxGeometry x="170" y="290" width="100" height="80" as="geometry" />
        </mxCell>
        <mxCell id="WIyWlLk6GJQsqaUBKTNV-12" value="&lt;span&gt;返回区域信息，已绑定仓信息（1条）&lt;/span&gt;" style="rounded=1;whiteSpace=wrap;html=1;fontSize=12;glass=0;strokeWidth=1;shadow=0;" parent="WIyWlLk6GJQsqaUBKTNV-1" vertex="1">
          <mxGeometry x="320" y="310" width="120" height="40" as="geometry" />
        </mxCell>
        <mxCell id="kwulwEB66I9dgA2TRlCA-0" value="es" style="ellipse;whiteSpace=wrap;html=1;" parent="WIyWlLk6GJQsqaUBKTNV-1" vertex="1">
          <mxGeometry x="60" y="-550" width="120" height="80" as="geometry" />
        </mxCell>
        <mxCell id="kwulwEB66I9dgA2TRlCA-1" value="squirrel" style="ellipse;whiteSpace=wrap;html=1;" parent="WIyWlLk6GJQsqaUBKTNV-1" vertex="1">
          <mxGeometry x="310" y="-640" width="120" height="80" as="geometry" />
        </mxCell>
        <mxCell id="kwulwEB66I9dgA2TRlCA-2" value="mysql" style="ellipse;whiteSpace=wrap;html=1;" parent="WIyWlLk6GJQsqaUBKTNV-1" vertex="1">
          <mxGeometry x="570" y="-520" width="120" height="80" as="geometry" />
        </mxCell>
        <mxCell id="kwulwEB66I9dgA2TRlCA-3" value="" style="ellipse;whiteSpace=wrap;html=1;" parent="WIyWlLk6GJQsqaUBKTNV-1" vertex="1">
          <mxGeometry x="240" y="-410" width="120" height="80" as="geometry" />
        </mxCell>
        <mxCell id="C2mgrSA55JZJrAJBrM-s-10" value="" style="edgeStyle=orthogonalEdgeStyle;rounded=0;orthogonalLoop=1;jettySize=auto;html=1;" edge="1" parent="WIyWlLk6GJQsqaUBKTNV-1" source="C2mgrSA55JZJrAJBrM-s-1" target="C2mgrSA55JZJrAJBrM-s-9">
          <mxGeometry relative="1" as="geometry" />
        </mxCell>
        <mxCell id="C2mgrSA55JZJrAJBrM-s-12" value="" style="edgeStyle=orthogonalEdgeStyle;rounded=0;orthogonalLoop=1;jettySize=auto;html=1;" edge="1" parent="WIyWlLk6GJQsqaUBKTNV-1" source="C2mgrSA55JZJrAJBrM-s-1" target="C2mgrSA55JZJrAJBrM-s-11">
          <mxGeometry relative="1" as="geometry" />
        </mxCell>
        <mxCell id="C2mgrSA55JZJrAJBrM-s-1" value="&lt;span&gt;查询region_warehouse_previous&lt;/span&gt;" style="rhombus;whiteSpace=wrap;html=1;" vertex="1" parent="WIyWlLk6GJQsqaUBKTNV-1">
          <mxGeometry x="180" y="410" width="80" height="80" as="geometry" />
        </mxCell>
        <mxCell id="C2mgrSA55JZJrAJBrM-s-9" value="&lt;span&gt;返回区域信息，已绑定仓信息（1条）&lt;/span&gt;" style="rounded=1;whiteSpace=wrap;html=1;" vertex="1" parent="WIyWlLk6GJQsqaUBKTNV-1">
          <mxGeometry x="320" y="430" width="120" height="40" as="geometry" />
        </mxCell>
        <mxCell id="C2mgrSA55JZJrAJBrM-s-11" value="&lt;span style=&quot;color: rgb(0 , 0 , 0) ; font-family: &amp;#34;helvetica&amp;#34; ; font-size: 12px ; font-style: normal ; font-weight: 400 ; letter-spacing: normal ; text-align: center ; text-indent: 0px ; text-transform: none ; word-spacing: 0px ; background-color: rgb(248 , 249 , 250) ; display: inline ; float: none&quot;&gt;返回区域信息，已生效和待生效仓信息&lt;/span&gt;" style="rounded=1;whiteSpace=wrap;html=1;" vertex="1" parent="WIyWlLk6GJQsqaUBKTNV-1">
          <mxGeometry x="160" y="530" width="120" height="60" as="geometry" />
        </mxCell>
      </root>
    </mxGraphModel>
  </diagram>
  <diagram id="JZFFeW0qjST3fZ0UheKE" name="Page-2">
    <mxGraphModel dx="1298" dy="676" grid="1" gridSize="10" guides="1" tooltips="1" connect="1" arrows="1" fold="1" page="1" pageScale="1" pageWidth="827" pageHeight="1169" math="0" shadow="0">
      <root>
        <mxCell id="PPkZ5Qz6Jww4zAWax9Q6-0" />
        <mxCell id="PPkZ5Qz6Jww4zAWax9Q6-1" parent="PPkZ5Qz6Jww4zAWax9Q6-0" />
        <mxCell id="PPkZ5Qz6Jww4zAWax9Q6-9" value="" style="edgeStyle=orthogonalEdgeStyle;rounded=0;orthogonalLoop=1;jettySize=auto;html=1;" edge="1" parent="PPkZ5Qz6Jww4zAWax9Q6-1" source="PPkZ5Qz6Jww4zAWax9Q6-2" target="PPkZ5Qz6Jww4zAWax9Q6-6">
          <mxGeometry relative="1" as="geometry" />
        </mxCell>
        <mxCell id="PPkZ5Qz6Jww4zAWax9Q6-18" value="" style="edgeStyle=orthogonalEdgeStyle;rounded=0;orthogonalLoop=1;jettySize=auto;html=1;" edge="1" parent="PPkZ5Qz6Jww4zAWax9Q6-1" source="PPkZ5Qz6Jww4zAWax9Q6-2" target="PPkZ5Qz6Jww4zAWax9Q6-17">
          <mxGeometry relative="1" as="geometry" />
        </mxCell>
        <mxCell id="PPkZ5Qz6Jww4zAWax9Q6-2" value="判断是否在同一物流区域" style="shape=process;whiteSpace=wrap;html=1;backgroundOutline=1;" vertex="1" parent="PPkZ5Qz6Jww4zAWax9Q6-1">
          <mxGeometry x="140" y="100" width="120" height="60" as="geometry" />
        </mxCell>
        <mxCell id="PPkZ5Qz6Jww4zAWax9Q6-4" value="" style="edgeStyle=orthogonalEdgeStyle;rounded=0;orthogonalLoop=1;jettySize=auto;html=1;" edge="1" parent="PPkZ5Qz6Jww4zAWax9Q6-1" source="PPkZ5Qz6Jww4zAWax9Q6-3" target="PPkZ5Qz6Jww4zAWax9Q6-2">
          <mxGeometry relative="1" as="geometry" />
        </mxCell>
        <mxCell id="PPkZ5Qz6Jww4zAWax9Q6-3" value="中心仓绑定共享仓" style="rounded=0;whiteSpace=wrap;html=1;" vertex="1" parent="PPkZ5Qz6Jww4zAWax9Q6-1">
          <mxGeometry x="140" y="10" width="120" height="60" as="geometry" />
        </mxCell>
        <mxCell id="PPkZ5Qz6Jww4zAWax9Q6-5" value="" style="shape=process;whiteSpace=wrap;html=1;backgroundOutline=1;" vertex="1" parent="PPkZ5Qz6Jww4zAWax9Q6-1">
          <mxGeometry x="140" y="300" width="120" height="60" as="geometry" />
        </mxCell>
        <mxCell id="PPkZ5Qz6Jww4zAWax9Q6-8" value="" style="edgeStyle=orthogonalEdgeStyle;rounded=0;orthogonalLoop=1;jettySize=auto;html=1;" edge="1" parent="PPkZ5Qz6Jww4zAWax9Q6-1" source="PPkZ5Qz6Jww4zAWax9Q6-6" target="PPkZ5Qz6Jww4zAWax9Q6-5">
          <mxGeometry relative="1" as="geometry" />
        </mxCell>
        <mxCell id="PPkZ5Qz6Jww4zAWax9Q6-6" value="是" style="rhombus;whiteSpace=wrap;html=1;" vertex="1" parent="PPkZ5Qz6Jww4zAWax9Q6-1">
          <mxGeometry x="160" y="180" width="80" height="80" as="geometry" />
        </mxCell>
        <mxCell id="PPkZ5Qz6Jww4zAWax9Q6-11" value="" style="shape=process;whiteSpace=wrap;html=1;backgroundOutline=1;" vertex="1" parent="PPkZ5Qz6Jww4zAWax9Q6-1">
          <mxGeometry x="140" y="440" width="120" height="60" as="geometry" />
        </mxCell>
        <mxCell id="PPkZ5Qz6Jww4zAWax9Q6-13" value="结束" style="rounded=0;whiteSpace=wrap;html=1;" vertex="1" parent="PPkZ5Qz6Jww4zAWax9Q6-1">
          <mxGeometry x="140" y="555" width="120" height="60" as="geometry" />
        </mxCell>
        <mxCell id="PPkZ5Qz6Jww4zAWax9Q6-20" style="edgeStyle=orthogonalEdgeStyle;rounded=0;orthogonalLoop=1;jettySize=auto;html=1;exitX=0.5;exitY=1;exitDx=0;exitDy=0;entryX=1;entryY=0.5;entryDx=0;entryDy=0;" edge="1" parent="PPkZ5Qz6Jww4zAWax9Q6-1" source="PPkZ5Qz6Jww4zAWax9Q6-17" target="PPkZ5Qz6Jww4zAWax9Q6-13">
          <mxGeometry relative="1" as="geometry" />
        </mxCell>
        <mxCell id="PPkZ5Qz6Jww4zAWax9Q6-17" value="否" style="rhombus;whiteSpace=wrap;html=1;" vertex="1" parent="PPkZ5Qz6Jww4zAWax9Q6-1">
          <mxGeometry x="310" y="90" width="80" height="80" as="geometry" />
        </mxCell>
      </root>
    </mxGraphModel>
  </diagram>
</mxfile>
